<svg width="100" height="100" viewBox="0 0 100 100" fill="none" xmlns="http://www.w3.org/2000/svg">
<path d="M19.1661 15C15.0827 38.1345 11.0555 62.869 6 85.7827" stroke="#222222" stroke-width="11.4783" stroke-linecap="round"/>
<path d="M28.9565 85.7827C30.3847 83.569 31.0101 79.97 31.7473 77.4849C34.4865 68.2507 36.9238 58.9365 38.9424 49.5162C40.785 40.9177 42.0915 32.2418 43.5663 23.5776C44.0213 20.9042 44.7053 12.8413 44.8745 15.5479C45.9105 32.1249 44.3254 48.8108 45.5737 65.4178C45.6855 66.9048 46.2268 85.6672 50 85.7827C51.0222 85.814 54.3923 79.5438 54.7826 79.087C58.6087 73.3479 59.9292 70.0342 62.4348 65.4178C70.6257 50.3263 76.0707 34.0799 82.181 18.029C82.5065 17.1741 83.4783 13.8946 83.3539 15.399C83.4521 16.0132 83.3607 18.3126 83.3539 18.5252C83.1909 23.6379 82.997 28.7519 82.79 33.8628C82.3559 44.5817 81.3966 55.3618 81.6171 66.0944C81.7329 71.7294 82.029 79.3816 85.7899 84.0711C89.0705 88.1617 92.0098 83.7606 94 81.7704" stroke="#222222" stroke-width="11.4783" stroke-linecap="round"/>
</svg>
